<svg xmlns="http://www.w3.org/2000/svg" version="1.1" xmlns:xlink="http://www.w3.org/1999/xlink" xmlns:svgjs="http://svgjs.com/svgjs" width="1440" height="560" preserveAspectRatio="none" viewBox="0 0 1440 560"><g mask="url(&quot;#SvgjsMask1026&quot;)" fill="none"><rect width="1440" height="560" x="0" y="0" fill="rgba(168, 165, 237, 1)"></rect><path d="M1307.7789956637698 639.7380146065989L1409.4273113826284 565.8861903367323 1335.5754871127617 464.2378746178737 1233.927171393903 538.0896988877403z" fill="rgba(25, 118, 210, 1)" class="triangle-float3"></path><path d="M1282.6566183140949 338.7214507911285L1147.1078091139368 350.5804349505808 1158.9667932733892 486.12924415073894 1294.5156024735472 474.27025999128665z" fill="rgba(25, 118, 210, 1)" class="triangle-float3"></path><path d="M479.4807661068494 568.6933807471347L447.5610962825674 457.3762631593012 336.24397869473387 489.29593298358316 368.16364851901585 600.6130505714167z" fill="rgba(25, 118, 210, 1)" class="triangle-float3"></path><path d="M1272.1808723448844 282.94612535552636L1170.2741934377882 304.6070586352297 1253.7189328108914 446.63661035602235z" fill="rgba(25, 118, 210, 1)" class="triangle-float2"></path><path d="M479.9828964695873 467.6151463028239L634.9513502121043 428.9771712275063 596.3133751367867 274.00871748498923 441.34492139426965 312.64669256030686z" fill="rgba(25, 118, 210, 1)" class="triangle-float2"></path><path d="M263.00361068716234 223.94295214748894L185.24268524740265 151.42971606288722 115.35329384037988 304.32772226482757z" fill="rgba(25, 118, 210, 1)" class="triangle-float1"></path><path d="M1373.3965298381365 176.34375237969954L1216.0798400236058 270.66521820310703 1354.9410643004915 350.83678341936803z" fill="rgba(25, 118, 210, 1)" class="triangle-float3"></path><path d="M467.14755429227995 243.55724971415628L562.0679129468915 298.3595443349721 616.8702075677073 203.43918568036057 521.9498489130958 148.63689105954475z" fill="rgba(25, 118, 210, 1)" class="triangle-float1"></path><path d="M1045.5230848329552 177.91750544213807L1076.0583325378368 257.4645453258418 1180.1112685109515 171.88815382666735z" fill="rgba(25, 118, 210, 1)" class="triangle-float2"></path><path d="M347.5387583866178 574.8569096938596L428.8897297424504 533.4065194469706 326.03865869420065 432.1052575366663z" fill="rgba(25, 118, 210, 1)" class="triangle-float2"></path></g><defs><mask id="SvgjsMask1026"><rect width="1440" height="560" fill="#ffffff"></rect></mask><style>
            @keyframes float1 {
                0%{transform: translate(0, 0)}
                50%{transform: translate(-10px, 0)}
                100%{transform: translate(0, 0)}
            }

            .triangle-float1 {
                animation: float1 5s infinite;
            }

            @keyframes float2 {
                0%{transform: translate(0, 0)}
                50%{transform: translate(-5px, -5px)}
                100%{transform: translate(0, 0)}
            }

            .triangle-float2 {
                animation: float2 4s infinite;
            }

            @keyframes float3 {
                0%{transform: translate(0, 0)}
                50%{transform: translate(0, -10px)}
                100%{transform: translate(0, 0)}
            }

            .triangle-float3 {
                animation: float3 6s infinite;
            }
        </style></defs></svg>