<svg width="1920" height="1080" viewBox="0 0 1920 1080" xmlns="http://www.w3.org/2000/svg"><rect width="1920" height="1080" fill="#aedcf7"/><path d="M 0,1080 C 0,1080 0,270 0,270 C -49.64528755000394,297.10918401700656 -99.29057510000789,324.21836803401305 8,337 C 115.29057510000789,349.78163196598695 379.5170128500276,348.23571188095434 430,350 C 480.4829871499724,351.76428811904566 317.2225236998975,356.83878444216964 299,343 C 280.7774763001025,329.16121555783036 407.5928923503823,296.4091503503671 435,307 C 462.4071076496177,317.5908496496329 390.40590689857345,371.5246141563621 463,356 C 535.5940931014266,340.4753858436379 752.7834800553239,255.49239302418468 876,244 C 999.2165199446761,232.50760697581532 1028.4601728801308,294.5058137468993 1000,292 C 971.5398271198693,289.4941862531007 885.3758284241533,222.48435198821798 853,219 C 820.6241715758467,215.51564801178202 842.0365134232566,275.55677830022876 970,302 C 1097.9634865767434,328.44322169977124 1332.4781178828202,321.2885348108669 1400,301 C 1467.5218821171798,280.7114651891331 1368.0510150454618,247.28908245630362 1373,269 C 1377.9489849545382,290.7109175436964 1487.3178219353322,367.5551353639187 1553,361 C 1618.6821780646678,354.4448646360813 1640.6776972132102,264.4903760880218 1631,256 C 1621.3223027867898,247.50962391197822 1579.9713892118277,320.48336028399416 1632,311 C 1684.0286107881723,301.51663971600584 1829.436745939478,209.57618277600167 1893,189 C 1956.563254060522,168.42381722399833 1938.281627030261,219.21190861199915 1920,270 C 1920,270 1920,1080 1920,1080 Z" fill="#747dfb" opacity="0.15"/><path d="M 0,1080 C 0,1080 0,540 0,540 C 67.59295865738241,590.5299511728067 135.18591731476482,641.0599023456135 214,610 C 292.8140826852352,578.9400976543865 382.8492893983232,466.2903417903529 400,443 C 417.1507106016768,419.7096582096471 361.4169250919424,485.77873049297466 349,487 C 336.5830749080576,488.22126950702534 367.48301023390707,424.5947362377485 362,439 C 356.51698976609293,453.4052637622515 314.65103397242945,545.8423245560313 416,565 C 517.3489660275706,584.1576754439687 761.9128538763752,530.0359655381266 861,534 C 960.0871461236248,537.9640344618734 913.6975505220697,600.0138132914624 948,594 C 982.3024494779303,587.9861867085376 1097.296944035346,513.9087812960236 1068,493 C 1038.703055964654,472.09121870397644 865.1146733365459,504.35106152444337 917,553 C 968.8853266634541,601.6489384755566 1246.2443626184702,666.6869726062032 1344,634 C 1441.7556373815298,601.3130273937968 1359.9078761895737,470.90104805074344 1339,475 C 1318.0921238104263,479.09895194925656 1358.1241326232357,617.7088351908229 1368,628 C 1377.8758673767643,638.2911648091771 1357.5955933174832,520.2636111859649 1377,482 C 1396.4044066825168,443.736388814035 1455.4934941068316,485.23672006531706 1499,506 C 1542.5065058931684,526.7632799346829 1570.4304302551911,526.7895085527665 1638,529 C 1705.5695697448089,531.2104914472335 1812.7847848724045,535.6052457236167 1920,540 C 1920,540 1920,1080 1920,1080 Z" fill="#747dfb" opacity="0.3"/><path d="M 0,1080 C 0,1080 0,810 0,810 C 107.9007257121396,821.7374024624273 215.8014514242792,833.4748049248545 294,809 C 372.1985485757208,784.5251950751455 420.69492001502266,723.8381827630093 404,730 C 387.30507998497734,736.1618172369907 305.41886851563027,809.1724640231082 326,819 C 346.58113148436973,828.8275359768918 469.6296059224562,775.4719611445578 509,741 C 548.3703940775438,706.5280388554422 504.0627077945452,690.9396913986609 546,716 C 587.9372922054548,741.0603086013391 716.1195628993632,806.7692732607989 771,808 C 825.8804371006368,809.2307267392011 807.4590406080016,745.9832155581435 851,756 C 894.5409593919984,766.0167844418565 1000.0442746686304,849.2978645066274 1063,861 C 1125.9557253313696,872.7021354933726 1146.3638607174769,812.825326415347 1107,815 C 1067.6361392825231,817.174673584653 968.5002824614617,881.4008298319847 1041,878 C 1113.4997175385383,874.5991701680153 1357.6350094366771,803.5713542567147 1393,803 C 1428.3649905633229,802.4286457432853 1254.9596797918296,872.3137531411566 1294,854 C 1333.0403202081704,835.6862468588434 1584.5262713960046,729.1736331786591 1670,720 C 1755.4737286039954,710.8263668213409 1674.9352346241526,798.991714144207 1655,804 C 1635.0647653758474,809.008285855793 1675.732790107385,730.8595102445123 1730,718 C 1784.267209892615,705.1404897554877 1852.1336049463075,757.5702448777438 1920,810 C 1920,810 1920,1080 1920,1080 Z" fill="#747dfb" opacity="0.44999999999999996"/></svg>